<svg xmlns="http://www.w3.org/2000/svg" viewBox="0 0 280.5 77.25">
  <defs>
    <clipPath id="a">
      <path d="M1.102 0h76.207v75.914H1.102Zm0 0"/>
    </clipPath>
    <clipPath id="b">
      <path d="M14.473 0H63.68c3.547 0 6.949 1.41 9.457 3.918a13.36 13.36 0 0 1 3.914 9.453v49.172c0 3.547-1.406 6.945-3.914 9.453a13.38 13.38 0 0 1-9.457 3.918H14.473c-3.547 0-6.95-1.41-9.457-3.918a13.36 13.36 0 0 1-3.914-9.453V13.371c0-3.547 1.406-6.95 3.914-9.453A13.38 13.38 0 0 1 14.473 0m0 0"/>
    </clipPath>
    <clipPath id="d">
      <path d="M.102 0h76.062v75.914H.102Zm0 0"/>
    </clipPath>
    <clipPath id="e">
      <path d="M13.473 0H62.68c3.547 0 6.949 1.41 9.457 3.918a13.36 13.36 0 0 1 3.914 9.453v49.172c0 3.547-1.406 6.945-3.914 9.453a13.38 13.38 0 0 1-9.457 3.918H13.473c-3.547 0-6.95-1.41-9.457-3.918a13.36 13.36 0 0 1-3.914-9.453V13.371c0-3.547 1.406-6.95 3.914-9.453A13.38 13.38 0 0 1 13.473 0m0 0"/>
    </clipPath>
    <clipPath id="c">
      <path d="M0 0h77v76H0z"/>
    </clipPath>
  </defs>
  <g clip-path="url(#a)">
    <g clip-path="url(#b)">
      <g clip-path="url(#c)" transform="translate(1)">
        <g clip-path="url(#d)">
          <g clip-path="url(#e)">
            <path fill="#231f20" d="M.102 0h75.914v75.914H.102Zm0 0"/>
          </g>
        </g>
      </g>
    </g>
  </g>
  <path fill="#0a0a0a" d="M87.95 56.647V36.162h8.28q.312.001.75.032.436.018.829.078 1.716.27 2.86 1.172a5.47 5.47 0 0 1 1.702 2.265c.383.906.578 1.914.578 3.016q-.002 1.659-.578 3.031a5.57 5.57 0 0 1-1.703 2.266q-1.143.89-2.86 1.156a9 9 0 0 1-.843.094q-.441.016-.734.015h-5.297v7.36Zm2.984-10.172h5.187q.281.002.625-.031.357-.03.672-.094.903-.217 1.453-.797.562-.576.797-1.328.248-.75.25-1.5a4.7 4.7 0 0 0-.25-1.5 3.3 3.3 0 0 0-.797-1.328q-.55-.575-1.453-.797a5 5 0 0 0-.672-.11 8 8 0 0 0-.625-.03h-5.187Zm15.148 10.172V35.74h2.969v20.907Zm11.571.422q-1.705-.002-2.86-.625-1.159-.64-1.75-1.688a4.64 4.64 0 0 1-.577-2.297c0-.77.132-1.445.406-2.031a4.05 4.05 0 0 1 1.219-1.5q.81-.622 2-1.016a23 23 0 0 1 2.312-.515q1.295-.234 2.719-.438 1.436-.2 2.844-.406l-1.079.61q.03-1.81-.765-2.688c-.524-.582-1.422-.875-2.703-.875q-1.206 0-2.22.562-1.019.563-1.405 1.86l-2.782-.86c.383-1.312 1.11-2.359 2.172-3.14q1.605-1.173 4.266-1.172c1.375 0 2.57.234 3.594.703a4.42 4.42 0 0 1 2.234 2.234c.25.5.398 1.032.453 1.594q.094.845.094 1.813v9.453h-2.64V53.13l.515.453q-.956 1.77-2.422 2.625c-.98.57-2.187.86-3.625.86m.531-2.422q1.265.001 2.172-.453.903-.45 1.453-1.141c.375-.469.617-.953.735-1.453q.246-.687.28-1.531a42 42 0 0 0 .032-1.375l.969.359-2.563.375q-1.141.174-2.078.344a11.5 11.5 0 0 0-1.656.39 5 5 0 0 0-1.094.516c-.312.2-.562.437-.75.719q-.28.422-.281 1.031 0 .61.297 1.11.312.502.922.812.609.298 1.562.297m12.55 8.829 2.985-8.094.03 2.39-6.687-16.484h3.094l5.016 12.735h-.922l4.781-12.735h3.016l-8.47 22.188Zm19.399.422a7.5 7.5 0 0 1-2.406-.39 6.7 6.7 0 0 1-2.11-1.126 6 6 0 0 1-1.578-1.844l2.75-1.39q.497.983 1.422 1.437.92.452 1.938.453c.851 0 1.578-.152 2.172-.453a2.93 2.93 0 0 0 1.343-1.344c.313-.593.461-1.328.454-2.203V52.74h.359V41.287h2.64v15.766q0 .621-.046 1.172c-.032.375-.086.742-.157 1.11q-.328 1.543-1.25 2.562-.908 1.012-2.328 1.5-1.422.499-3.203.5m-.234-6.828q-2.145-.001-3.703-1.063-1.564-1.06-2.407-2.906-.843-1.841-.843-4.156 0-2.311.843-4.141.857-1.827 2.422-2.89 1.576-1.062 3.75-1.063 2.168 0 3.657 1.062 1.482 1.066 2.25 2.907c.507 1.218.765 2.593.765 4.125q-.001 2.316-.781 4.156-.767 1.828-2.266 2.906c-.992.707-2.218 1.063-3.687 1.063m.406-2.688c.977 0 1.773-.226 2.39-.687q.939-.705 1.36-1.922c.281-.82.422-1.766.422-2.828 0-1.063-.149-2-.438-2.813-.28-.812-.726-1.445-1.328-1.906q-.907-.687-2.297-.688-1.488 0-2.437.735-.955.721-1.422 1.953c-.305.812-.453 1.719-.453 2.719 0 1.023.148 1.945.453 2.765.313.813.773 1.465 1.39 1.953.626.48 1.41.72 2.36.72m10.78 2.265v-15.36h2.656v3.72l-.375-.485q.28-.734.734-1.344a4.6 4.6 0 0 1 1.063-1.031q.575-.422 1.297-.657c.476-.156.969-.25 1.469-.28q.761-.061 1.453.077v2.782a4.7 4.7 0 0 0-1.672-.11 3.7 3.7 0 0 0-1.688.578q-.72.471-1.14 1.141-.423.675-.61 1.5a8 8 0 0 0-.172 1.719v7.75Zm17.382.422c-1.532 0-2.867-.348-4-1.032q-1.688-1.045-2.61-2.875-.907-1.828-.906-4.218 0-2.39.938-4.22.937-1.825 2.625-2.843c1.132-.687 2.453-1.031 3.953-1.031 1.539 0 2.875.351 4 1.047q1.7 1.03 2.625 2.86.92 1.815.922 4.187 0 2.407-.938 4.234-.926 1.828-2.625 2.86c-1.125.683-2.453 1.03-3.984 1.03m0-2.797c1.476 0 2.578-.492 3.297-1.485q1.091-1.483 1.093-3.843 0-2.39-1.109-3.829-1.095-1.453-3.281-1.453c-.992 0-1.809.227-2.453.672-.649.45-1.125 1.07-1.438 1.86q-.469 1.19-.469 2.75-.001 2.423 1.11 3.875 1.106 1.452 3.25 1.453m16.463 2.782q-1.594-.001-2.672-.5-1.08-.515-1.766-1.344a6.5 6.5 0 0 1-1.031-1.812q-.344-.985-.484-1.922a12.5 12.5 0 0 1-.125-1.656v-8.532h3.015v7.547q0 .893.14 1.844c.102.637.298 1.227.579 1.766q.42.796 1.188 1.296.762.502 1.984.5c.531 0 1.031-.085 1.5-.265a3.2 3.2 0 0 0 1.25-.844q.528-.575.828-1.531.312-.95.313-2.328l1.859.703q-.001 2.098-.781 3.703-.786 1.593-2.25 2.484c-.98.59-2.164.891-3.547.891m5.078-.406v-4.438h-.36V41.287h3v15.36Zm17.416 0V49.1q-.002-.905-.156-1.844a5.6 5.6 0 0 0-.562-1.766 3.36 3.36 0 0 0-1.188-1.296q-.767-.499-1.984-.5c-.532 0-1.04.09-1.516.265a3 3 0 0 0-1.234.844q-.534.581-.844 1.531-.298.954-.297 2.313l-1.86-.688q-.002-2.093.782-3.687c.52-1.07 1.27-1.907 2.25-2.5q1.465-.905 3.547-.907 1.593 0 2.672.516 1.076.517 1.75 1.344c.457.555.8 1.156 1.03 1.812q.359.985.485 1.922c.094.625.14 1.18.14 1.656v8.532Zm-10.797 0v-15.36h2.657v4.438h.359v10.922Zm23.419.422q-2.145-.001-3.703-1.063-1.564-1.06-2.406-2.906-.844-1.841-.844-4.156 0-2.311.844-4.141.856-1.827 2.422-2.89 1.575-1.062 3.75-1.063 2.168 0 3.656 1.062 1.482 1.066 2.25 2.907.764 1.827.766 4.125-.001 2.316-.782 4.156-.766 1.828-2.265 2.906-1.486 1.062-3.688 1.063m.407-2.688c.976 0 1.773-.226 2.39-.687q.937-.705 1.36-1.922c.28-.82.421-1.766.421-2.828q-.002-1.594-.437-2.813c-.281-.812-.727-1.445-1.328-1.906q-.909-.687-2.297-.688-1.488 0-2.438.735-.954.721-1.421 1.953-.456 1.218-.454 2.719-.002 1.535.454 2.765.466 1.22 1.39 1.953.936.72 2.36.72m4.171 2.266V45.6h-.343v-9.438h3v20.485ZM87.074 26.192V14.786h6.547v1.156h-5.375v3.97h4.422v1.155h-4.422v5.125Zm7.976 0V17.63h1.048v2.062l-.203-.265q.138-.373.359-.688c.156-.218.32-.398.5-.547q.341-.28.781-.437.452-.153.89-.188.453-.03.829.063v1.094a3.2 3.2 0 0 0-1.031-.047 1.96 1.96 0 0 0-1.016.437q-.423.344-.64.813-.205.454-.282.969a8 8 0 0 0-.062 1.03v4.266Zm7.848.235q-.97-.002-1.625-.344a2.3 2.3 0 0 1-.984-.922 2.6 2.6 0 0 1-.313-1.265q0-.704.282-1.188a2.3 2.3 0 0 1 .765-.812q.48-.329 1.125-.485c.438-.101.914-.195 1.438-.281a48 48 0 0 1 1.531-.219q.763-.091 1.344-.172l-.422.25q.031-1.265-.484-1.875c-.344-.406-.946-.61-1.797-.61-.586 0-1.078.134-1.485.392q-.598.393-.843 1.25l-1.141-.329c.195-.77.594-1.363 1.187-1.78q.891-.64 2.297-.641 1.172 0 1.985.453.825.439 1.172 1.265.153.376.203.828.046.458.047.938v5.312h-1.032v-2.14l.297.125q-.44 1.096-1.36 1.672c-.605.382-1.335.578-2.187.578m.125-1q.811 0 1.422-.297.62-.293.985-.797.374-.514.484-1.156.093-.42.094-.906c.007-.333.015-.583.015-.75l.453.234a46 46 0 0 1-1.296.156q-.692.082-1.36.188-.675.095-1.203.25a3 3 0 0 0-.703.28q-.345.19-.563.5-.22.317-.218.767c0 .25.062.492.187.718.125.23.32.422.594.578.281.157.648.235 1.11.235m10.066 1q-1.192-.002-2-.594-.815-.593-1.235-1.625-.422-1.03-.422-2.297 0-1.294.422-2.312c.281-.688.695-1.223 1.25-1.61q.824-.592 2.031-.593c.781 0 1.445.199 2 .593.563.399.992.938 1.297 1.625q.451 1.02.453 2.297 0 1.283-.453 2.313a3.8 3.8 0 0 1-1.313 1.609c-.562.395-1.242.594-2.03.594m-3.86 3.562V17.63h1.047v6.454h.14v5.906Zm3.734-4.64q.903.001 1.5-.453.593-.45.89-1.235c.196-.52.298-1.101.298-1.75a5 5 0 0 0-.297-1.75q-.3-.78-.89-1.219-.598-.451-1.516-.453c-.606 0-1.106.149-1.5.438q-.581.422-.875 1.203-.299.767-.297 1.781-.001.985.297 1.766.293.784.89 1.234.593.439 1.5.438m9.504 1.078q-1.19-.002-2-.594-.813-.593-1.235-1.625-.42-1.03-.421-2.297 0-1.294.421-2.312.421-1.03 1.25-1.61.826-.592 2.032-.593 1.169.001 2 .593.841.596 1.297 1.625.452 1.02.453 2.297-.001 1.283-.453 2.313a3.8 3.8 0 0 1-1.313 1.609c-.562.395-1.242.594-2.031.594m-3.86 3.562V17.63h1.047v6.454h.14v5.906Zm3.735-4.64q.902.001 1.5-.453.591-.45.89-1.235.296-.778.297-1.75-.001-.965-.297-1.75-.299-.78-.89-1.219-.597-.451-1.516-.453c-.605 0-1.105.149-1.5.438q-.582.422-.875 1.203-.298.767-.297 1.781 0 .985.297 1.766.293.784.89 1.234.592.439 1.5.438m9.286 1.078q-1.253-.001-2.172-.547a3.7 3.7 0 0 1-1.422-1.563q-.502-1.012-.5-2.359-.001-1.404.484-2.422c.332-.687.801-1.21 1.406-1.578q.92-.562 2.157-.562 1.265.001 2.156.593c.594.387 1.039.946 1.344 1.672q.468 1.078.437 2.578h-1.187v-.406q-.035-1.67-.719-2.516c-.461-.562-1.125-.843-2-.843q-1.394 0-2.125.89c-.48.594-.719 1.446-.719 2.547q-.001 1.627.719 2.516.733.89 2.094.89.902 0 1.593-.421.684-.437 1.094-1.235l1.078.422q-.504 1.125-1.5 1.734a4.17 4.17 0 0 1-2.218.61m-3.282-4.188v-.968h6.547v.968Zm0 0"/>
  <path fill="#fff" d="m23.754 55.102 8.016-5.657-.235 11.633Zm0 0"/>
  <path fill="#fff" d="M33.484 65.137 20.324 55.03l13.563-9.562Zm-6.304-9.965 2.406 1.848.07-3.598Zm0 0"/>
  <path fill="#fff" d="M52.492 57.758H31.961a2.05 2.05 0 0 1-1.438-.598 2 2 0 0 1-.437-.66 2 2 0 0 1-.156-.777q-.002-.404.156-.778.155-.373.437-.66a2.07 2.07 0 0 1 1.438-.594h20.531c3.25 0 5.895-2.64 5.895-5.894V37.43q0-.404.152-.778c.106-.25.25-.468.441-.66a2 2 0 0 1 .66-.437q.374-.158.778-.157.403-.001.777.157a2.03 2.03 0 0 1 1.102 1.097q.152.374.152.778v10.367c0 5.492-4.465 9.96-9.957 9.96m-34.758-8.132q-.404 0-.777-.152a2.04 2.04 0 0 1-1.102-1.102 2 2 0 0 1-.152-.777V23c0-5.488 4.465-9.96 9.957-9.96h26.832c5.492 0 9.957 4.472 9.957 9.96v4.27q0 .404-.152.777a2.03 2.03 0 0 1-1.102 1.098q-.373.157-.777.156-.403 0-.777-.156a2.03 2.03 0 0 1-1.102-1.098 2 2 0 0 1-.152-.777V23a5.904 5.904 0 0 0-5.895-5.895H25.66q-.58.002-1.148.114a6 6 0 0 0-1.106.34 5.6 5.6 0 0 0-1.015.543q-.486.322-.895.734-.411.41-.734.89a5.9 5.9 0 0 0-.88 2.126A6 6 0 0 0 19.767 23v24.594q0 .404-.153.777a2.04 2.04 0 0 1-1.101 1.102q-.374.152-.778.152"/>
</svg>